# xmcd
#
# Track frame offsets:
#	150
#	18084
#	29961
#	44353
#	51087
#	63205
#	73595
#	85480
#	96508
#	111036
#	121217
#
# Disc length: 1779 seconds
#
# Revision: 1
# Processed by: cddbd v1.5.2PL0 Copyright (c) Steve Scherf et al.
# Submitted via: EasyCDDAExtractor 12.0.1.1
#
DISCID=9606f10b
DTITLE=Petunia - The Ugliest, Bitterest, Coldest Dreary Place I've Ever Seen
DYEAR=2002
DGENRE=Country
TTITLE0=The Lonesome Pine Hollows
TTITLE1=I was Roaming
TTITLE2=The Ugliest, Bitterest, Coldest, Dreary Place I've Ever Seen
TTITLE3=Big Bright White Ice Cream Truck
TTITLE4=Don't Look Back
TTITLE5=My Sweetheart
TTITLE6=Big River
TTITLE7=My Gal
TTITLE8=Trouble On My Mind
TTITLE9=Hillbilly Hut
TTITLE10=La Vie En Rose
EXTD=
EXTT0=
EXTT1=
EXTT2=
EXTT3=
EXTT4=
EXTT5=
EXTT6=
EXTT7=
EXTT8=
EXTT9=
EXTT10=
PLAYORDER=
